{"title":"Harry Potter And The Deathly Hallows 2011 Part 2 BRRip XViD DTRG","uid":6773880,"size":2090764425,"categoryP":"video","categoryS":"movies","magnet":"?xt=urn:btih:2834b940759dc4c1a90ddb5829e7e67ca6c9899e&amp;dn=Harry+Potter+And+The+Deathly+Hallows+2011+Part+2+BRRip+XViD+DTRG&amp;tr=udp%3A%2F%2Ftracker.openbittorrent.com%3A80&amp;tr=udp%3A%2F%2Fopen.demonii.com%3A1337&amp;tr=udp%3A%2F%2Ftracker.coppersurfer.tk%3A6969&amp;tr=udp%3A%2F%2Fexodus.desync.com%3A6969","seeders":0,"leechers":0,"uploader":"SAFCukO09","files":3,"time":1319665698,"description":"Format : AVI\nFormat/Info : Audio Video Interleave\nFile size : 1.95 GiB\nDuration : 2h 10mn\nOverall bit rate : 2 137 Kbps\nWriting application : VirtualDubMod 1.5.10.2 (build 2540/release)\nWriting library : VirtualDubMod build 2540/release\n\nVideo\nID : 0\nFormat : MPEG-4 Visual\nFormat profile : Advanced Simple@L5\nFormat settings, BVOP : 2\nFormat settings, QPel : No\nFormat settings, GMC : No warppoints\nFormat settings, Matrix : Default (H.263)\nMuxing mode : Packed bitstream\nCodec ID : XVID\nCodec ID/Hint : XviD\nDuration : 2h 10mn\nBit rate : 1 744 Kbps\nWidth : 720 pixels\nHeight : 304 pixels\nDisplay aspect ratio : 2.35:1\nFrame rate : 23.976 fps\nColor space : YUV\nChroma subsampling : 4:2:0\nBit depth : 8 bits\nScan type : Progressive\nCompression mode : Lossy\nBits/(Pixel*Frame) : 0.332\nStream size : 1.59 GiB (82%)\nWriting library : XviD 64\n\nAudio\nID : 1\nFormat : AC-3\nFormat/Info : Audio Coding 3\nMode extension : CM (complete main)\nCodec ID : 2000\nDuration : 2h 10mn\nBit rate mode : Constant\nBit rate : 384 Kbps\nChannel(s) : 6 channels\nChannel positions : Front: L C R, Side: L R, LFE\nSampling rate : 48.0 KHz\nBit depth : 16 bits\nCompression mode : Lossy\nStream size : 358 MiB (18%)\nAlignment : Split accross interleaves\nInterleave, duration : 42 ms (1.00 video frame)\nInterleave, preload duration : 500 ms\n\n\n\n\n\n\n\n\n &lt;a href=&quot;\nhttp://www.imdb.com/title/tt1201607/&quot; rel=&quot;nofollow&quot; target=&quot;_NEW&quot;&gt;\nhttp://www.imdb.com/title/tt1201607/&lt;/a&gt;\n\n\nRating: 8.3/10 110,287 (votes)\n\n\nStoryline\n\nThe final chapter begins as Harry, Ron, and Hermione continue their quest of finding and destroying the Dark Lord's three remaining Horcruxes, the magical items responsible for his immortality. But as the mystical Deathly Hallows are uncovered, and Voldemort finds out about their mission, the biggest battle begins and life as they know it will never be the same again.\n\n\n\n\n\n\n\n\n\n\n\n\n\n\n\n\n\n\n\n\n\n\n\n\nSource Used\n\n\nHarry.Potter.And.The.Deathly.Hallows.Part.2.720p.Bluray.x264-MHD............Thanks\n\nNot expecting many hits now this one been done and done somemore but mines thrown into the hat and its a real good copy .........So farewell harry crapper .................i mean potter !\n\nEnjoy\n\n\n\n\n\nGreetz to IMAGiNE,Flawl3ss,BDK,Ez,CreWsaDe,TaRiQ786,ETRG,BHRG,iLLUMiNATi,ViSUALiSE,MiSTERE","torrent":{"xt":"urn:btih:2834b940759dc4c1a90ddb5829e7e67ca6c9899e","amp;dn":"Harry+Potter+And+The+Deathly+Hallows+2011+Part+2+BRRip+XViD+DTRG","amp;tr":["udp%3A%2F%2Ftracker.openbittorrent.com%3A80","udp%3A%2F%2Fopen.demonii.com%3A1337","udp%3A%2F%2Ftracker.coppersurfer.tk%3A6969","udp%3A%2F%2Fexodus.desync.com%3A6969"],"infoHash":"2834b940759dc4c1a90ddb5829e7e67ca6c9899e","infoHashBuffer":{"type":"Buffer","data":[40,52,185,64,117,157,196,193,169,13,219,88,41,231,230,124,166,201,137,158]},"announce":[],"urlList":[]}}